<svg xmlns="http://www.w3.org/2000/svg" width="140" height="112" viewBox="0 0 140 112">
  <path d="M 139.00 79.00 L 134.00 79.00 L 133.00 80.00 L 133.00 102.00 L 130.00 105.00 L 113.00 105.00 L 112.00 106.00 L 112.00 111.00 L 113.00 112.00 L 139.00 112.00 L 140.00 111.00 L 140.00 80.00 Z M 1.00 79.00 L 0.00 80.00 L 0.00 111.00 L 1.00 112.00 L 27.00 112.00 L 28.00 111.00 L 28.00 106.00 L 27.00 105.00 L 10.00 105.00 L 7.00 102.00 L 7.00 80.00 L 6.00 79.00 Z M 116.00 25.00 L 111.00 20.00 L 110.00 20.00 L 69.00 60.00 L 67.00 60.00 L 55.00 49.00 L 53.00 49.00 L 48.00 54.00 L 48.00 56.00 L 67.00 75.00 L 68.00 75.00 Z M 14.00 57.00 L 24.00 58.00 L 27.00 61.00 L 28.00 96.00 L 113.00 96.00 L 113.00 62.00 L 116.00 59.00 L 126.00 58.00 L 107.00 41.00 L 102.00 46.00 L 105.00 50.00 L 105.00 85.00 L 102.00 88.00 L 38.00 88.00 L 35.00 85.00 L 35.00 49.00 L 70.00 16.00 L 89.00 34.00 L 95.00 28.00 L 70.00 4.00 Z M 27.00 1.00 L 1.00 1.00 L 0.00 2.00 L 0.00 30.00 L 1.00 31.00 L 7.00 31.00 L 8.00 30.00 L 8.00 15.00 L 7.00 14.00 L 7.00 11.00 L 10.00 8.00 L 27.00 8.00 L 28.00 7.00 L 28.00 2.00 Z M 113.00 1.00 L 112.00 2.00 L 112.00 7.00 L 113.00 8.00 L 130.00 8.00 L 133.00 11.00 L 133.00 29.00 L 132.00 30.00 L 133.00 31.00 L 139.00 31.00 L 140.00 30.00 L 140.00 1.00 L 139.00 0.00 L 138.00 1.00 Z" fill="currentColor" fill-rule="evenodd" />
</svg>